name C:\Users\u0101727\Documents\MyRepositories\upper-imu-dc\Results\main_tracking\Case_41\FLX01_orientations_groundFrame.mot
datacolumns 13
datarows 21
range 0.51000000 0.71000000
endheader 
time	radius_imu_[0][0]	radius_imu_[0][1]	radius_imu_[0][2]	radius_imu_[1][0]	radius_imu_[1][1]	radius_imu_[1][2]	radius_imu_[2][0]	radius_imu_[2][1]	radius_imu_[2][2]	radius_imu_x	radius_imu_y	radius_imu_z	
          0.51000000	          0.68595832	         -0.01945011	          0.72738084	         -0.13474427	          0.97895811	          0.15324818	         -0.71505606	         -0.20313227	          0.66890367	         -0.22521678	          0.81449747	          0.02834706	
          0.52000000	          0.68458685	         -0.02330314	          0.72855872	         -0.13409699	          0.97840446	          0.15729813	         -0.71649065	         -0.20538176	          0.66667795	         -0.23170562	          0.81621548	          0.03402657	
          0.53000000	          0.68316153	         -0.02720741	          0.72976029	         -0.13341407	          0.97783763	          0.16135133	         -0.71797703	         -0.20758931	          0.66439120	         -0.23824359	          0.81797128	          0.03980470	
          0.54000000	          0.68162361	         -0.03117644	          0.73103850	         -0.13269573	          0.97725825	          0.16540302	         -0.71957008	         -0.20974829	          0.66198531	         -0.24484600	          0.81984269	          0.04570665	
          0.55000000	          0.68001093	         -0.03519907	          0.73235658	         -0.13194597	          0.97666516	          0.16945626	         -0.72123186	         -0.21186361	          0.65949860	         -0.25150636	          0.82177642	          0.05171635	
          0.56000000	          0.67829201	         -0.03928811	          0.73374137	         -0.13117098	          0.97605564	          0.17352109	         -0.72298971	         -0.21394354	          0.65689728	         -0.25825372	          0.82381234	          0.05785747	
          0.57000000	          0.67648860	         -0.04344625	          0.73517046	         -0.13037984	          0.97542462	          0.17761734	         -0.72482017	         -0.21600751	          0.65419911	         -0.26511263	          0.82591810	          0.06413511	
          0.58000000	          0.67455878	         -0.04770022	          0.73667845	         -0.12958100	          0.97476571	          0.18177068	         -0.72675939	         -0.21807454	          0.65135572	         -0.27214160	          0.82814536	          0.07059570	
          0.59000000	          0.67251086	         -0.05206504	          0.73825359	         -0.12877812	          0.97407282	          0.18600631	         -0.72879718	         -0.22016217	          0.64836971	         -0.27937992	          0.83047758	          0.07726476	
          0.60000000	          0.67033920	         -0.05656322	          0.73989591	         -0.12797873	          0.97333741	          0.19035685	         -0.73093557	         -0.22229460	          0.64522733	         -0.28688444	          0.83291562	          0.08418059	
          0.61000000	          0.66804363	         -0.06121731	          0.74159972	         -0.12718750	          0.97255088	          0.19485410	         -0.73317191	         -0.22449325	          0.64192035	         -0.29470931	          0.83545187	          0.09138147	
          0.62000000	          0.66563990	         -0.06604811	          0.74334458	         -0.12640230	          0.97170532	          0.19952753	         -0.73549030	         -0.22677395	          0.63845720	         -0.30289864	          0.83805662	          0.09890125	
          0.63000000	          0.66319165	         -0.07106507	          0.74506818	         -0.12561881	          0.97079185	          0.20440913	         -0.73783247	         -0.22915700	          0.63489394	         -0.31147798	          0.84063705	          0.10674882	
          0.64000000	          0.66076962	         -0.07628091	          0.74670258	         -0.12483366	          0.96979890	          0.20953916	         -0.74013517	         -0.23167073	          0.63129122	         -0.32047941	          0.84309083	          0.11493375	
          0.65000000	          0.65842331	         -0.08171978	          0.74819825	         -0.12404197	          0.96871275	          0.21496324	         -0.74235594	         -0.23434479	          0.62768637	         -0.32995016	          0.84534228	          0.12348287	
          0.66000000	          0.65618589	         -0.08741211	          0.74951931	         -0.12322988	          0.96752084	          0.22072113	         -0.74446926	         -0.23719727	          0.62410174	         -0.33993353	          0.84733565	          0.13243273	
          0.67000000	          0.65408125	         -0.09338858	          0.75063725	         -0.12238143	          0.96621056	          0.22684782	         -0.74645864	         -0.24024097	          0.62055119	         -0.35046769	          0.84902604	          0.14181974	
          0.68000000	          0.65211892	         -0.09967558	          0.75153556	         -0.12148195	          0.96477007	          0.23336846	         -0.74832015	         -0.24348199	          0.61703603	         -0.36158090	          0.85038669	          0.15167487	
          0.69000000	          0.65032515	         -0.10628474	          0.75218399	         -0.12051924	          0.96318825	          0.24029879	         -0.75003488	         -0.24692499	          0.61357618	         -0.37327568	          0.85137017	          0.16200099	
          0.70000000	          0.64873530	         -0.11322000	          0.75254484	         -0.11948226	          0.96145369	          0.24765055	         -0.75157601	         -0.25057541	          0.61020117	         -0.38553986	          0.85191795	          0.17278395	
          0.71000000	          0.64737412	         -0.12048660	          0.75258868	         -0.11835977	          0.95955437	          0.25543368	         -0.75292610	         -0.25443738	          0.60692991	         -0.39836044	          0.85198453	          0.18401050	
